<svg width="124" height="36" viewBox="0 0 124 36" fill="none" xmlns="http://www.w3.org/2000/svg">
<path d="M34.7441 27.6H37.2741V19.596H41.5981C44.7031 19.596 46.9801 17.8848 46.9801 13.7448C46.9801 9.6048 44.7031 7.866 41.5981 7.866H34.7441V27.6ZM37.2741 16.974V10.488H41.4831C43.3921 10.488 44.3581 11.5092 44.3581 13.7448C44.3581 15.9528 43.3921 16.974 41.4831 16.974H37.2741ZM51.3652 27.9864C53.2742 27.9864 54.6082 27.0756 55.3672 25.6128H55.4132C55.5512 27.2136 56.1492 27.738 57.2762 27.738C57.6442 27.738 58.0352 27.6828 58.4262 27.5724V25.9164C58.2882 25.944 58.2192 25.944 58.1502 25.944C57.7132 25.944 57.5982 25.4196 57.5982 24.3984V17.94C57.5982 14.2968 55.6662 13.0824 53.2512 13.0824C49.6632 13.0824 48.1912 15.2076 48.0762 17.9124H50.3762C50.4912 16.0356 51.1122 15.2628 53.1592 15.2628C54.8842 15.2628 55.3902 16.1184 55.3902 17.1396C55.3902 18.5196 54.2632 18.7956 52.4232 19.2096C49.5022 19.872 47.5242 20.8104 47.5242 23.9568C47.5242 26.358 49.0192 27.9864 51.3652 27.9864ZM49.8702 23.7636C49.8702 22.3008 50.7442 21.6108 52.8142 21.114C54.0102 20.8104 55.0222 20.5068 55.3902 20.0928V22.1076C55.3902 24.564 53.8952 25.806 51.8712 25.806C50.4682 25.806 49.8702 25.0884 49.8702 23.7636ZM61.4996 32.5404C63.3166 32.5404 64.4436 31.4088 65.5706 27.9312L70.2166 13.524H67.8476L64.6276 24.288H64.5816L61.1546 13.524H58.6936L63.4316 27.462C62.9716 29.67 61.9136 30.222 61.0166 30.222C60.6486 30.222 60.4416 30.1944 60.0506 30.1392V32.3472C60.6486 32.4852 60.9936 32.5404 61.4996 32.5404ZM71.5939 27.6H73.8479V7.866H71.5939V27.6ZM81.622 28.014C85.279 28.014 87.487 24.9504 87.487 20.5344C87.487 16.146 85.279 13.0824 81.645 13.0824C77.965 13.0824 75.757 16.1736 75.757 20.562C75.757 24.978 77.965 28.014 81.622 28.014ZM78.103 20.562C78.103 17.6088 79.207 15.3456 81.645 15.3456C84.037 15.3456 85.141 17.6088 85.141 20.562C85.141 23.4876 84.037 25.7784 81.645 25.7784C79.207 25.7784 78.103 23.4876 78.103 20.562ZM92.6484 27.9864C94.5574 27.9864 95.8914 27.0756 96.6504 25.6128H96.6964C96.8344 27.2136 97.4324 27.738 98.5594 27.738C98.9274 27.738 99.3184 27.6828 99.7094 27.5724V25.9164C99.5714 25.944 99.5024 25.944 99.4334 25.944C98.9964 25.944 98.8814 25.4196 98.8814 24.3984V17.94C98.8814 14.2968 96.9494 13.0824 94.5344 13.0824C90.9464 13.0824 89.4744 15.2076 89.3594 17.9124H91.6594C91.7744 16.0356 92.3954 15.2628 94.4424 15.2628C96.1674 15.2628 96.6734 16.1184 96.6734 17.1396C96.6734 18.5196 95.5464 18.7956 93.7064 19.2096C90.7854 19.872 88.8074 20.8104 88.8074 23.9568C88.8074 26.358 90.3024 27.9864 92.6484 27.9864ZM91.1534 23.7636C91.1534 22.3008 92.0274 21.6108 94.0974 21.114C95.2934 20.8104 96.3054 20.5068 96.6734 20.0928V22.1076C96.6734 24.564 95.1784 25.806 93.1544 25.806C91.7514 25.806 91.1534 25.0884 91.1534 23.7636ZM106.181 27.9864C108.021 27.9864 109.148 26.9376 109.792 25.944H109.838V27.6H112.092V7.866H109.838V15.2352H109.792C109.148 14.1312 108.021 13.11 106.181 13.11C103.191 13.11 100.914 15.9252 100.914 20.562C100.914 25.1988 103.191 27.9864 106.181 27.9864ZM103.26 20.562C103.26 17.802 104.341 15.3732 106.549 15.3732C108.573 15.3732 109.815 17.3604 109.815 20.562C109.815 23.736 108.573 25.7508 106.549 25.7508C104.341 25.7508 103.26 23.322 103.26 20.562Z" fill="black"/>
<mask id="mask0_2_737" style="mask-type:luminance" maskUnits="userSpaceOnUse" x="0" y="0" width="26" height="35">
<path d="M26 0.822948H0V34.4229H26V0.822948Z" fill="white"/>
</mask>
<g mask="url(#mask0_2_737)">
<mask id="mask1_2_737" style="mask-type:luminance" maskUnits="userSpaceOnUse" x="3" y="0" width="20" height="32">
<path d="M22.0999 0.822948H3.8999V31.063H22.0999V0.822948Z" fill="white"/>
</mask>
<g mask="url(#mask1_2_737)">
<path d="M12.2462 2.8065L22.2869 10.6062V25.4106L14.7263 31.063V16.2586L4.67358 8.46914L12.2462 2.8065Z" fill="black"/>
<path d="M11.4765 30.2422V18.6898L3.8999 24.3524L11.4765 30.2422Z" fill="black"/>
</g>
</g>
<path d="M120.441 7.56356C119.086 7.56356 117.998 8.76002 117.998 10.5117C117.998 12.2478 119.086 13.4364 120.441 13.4364C121.79 13.4364 122.879 12.2478 122.879 10.5117C122.879 8.76002 121.79 7.56356 120.441 7.56356ZM120.441 12.9125C119.34 12.9125 118.48 11.9428 118.48 10.5117C118.48 9.05719 119.34 8.08751 120.441 8.08751C121.562 8.08751 122.396 9.05719 122.396 10.5117C122.396 11.9428 121.562 12.9125 120.441 12.9125ZM120.52 10.7698L121.047 11.9584H121.64L121.041 10.6368C121.367 10.4648 121.51 10.152 121.51 9.80791C121.51 8.99462 121.054 8.83823 120.285 8.83823H119.49V11.9584H120.024V10.7698H120.52ZM120.37 9.34652C120.728 9.34652 120.976 9.44037 120.976 9.81573C120.976 10.1207 120.806 10.2771 120.402 10.2771H120.024V9.34652H120.37Z" fill="black"/>
</svg>
